<?xml version="1.0" encoding="utf-8"?>
<!-- Generator: Adobe Illustrator 22.0.1, SVG Export Plug-In . SVG Version: 6.00 Build 0)  -->
<svg version="1.1" id="Capa_1" xmlns="http://www.w3.org/2000/svg" xmlns:xlink="http://www.w3.org/1999/xlink" x="0px" y="0px"
	 viewBox="0 0 512 512" style="enable-background:new 0 0 512 512;" xml:space="preserve">
<style type="text/css">
	.st0{fill:#FFFFFF;}
</style>
<g>
	<g>
		<g>
			<path class="st0" d="M452,0H60C26.9,0,0,26.9,0,60v392c0,33.1,26.9,60,60,60h392c33.1,0,60-26.9,60-60V60C512,26.9,485.1,0,452,0
				z M472,452c0,11-9,20-20,20H60c-11,0-20-9-20-20V60c0-11,9-20,20-20h392c11,0,20,9,20,20V452z"/>
			<path class="st0" d="M286,100H146v312h40V300h100c55.1,0,100-44.9,100-100S341.1,100,286,100z M286,260H186V140h100
				c33.1,0,60,26.9,60,60S319.1,260,286,260z"/>
		</g>
	</g>
</g>
</svg>
