<?xml version="1.0" encoding="utf-8"?>
<!-- Generator: Adobe Illustrator 22.0.1, SVG Export Plug-In . SVG Version: 6.00 Build 0)  -->
<svg version="1.1" id="Capa_1" xmlns="http://www.w3.org/2000/svg" xmlns:xlink="http://www.w3.org/1999/xlink" x="0px" y="0px"
	 viewBox="0 0 54.9 39.2" style="enable-background:new 0 0 54.9 39.2;" xml:space="preserve">
<style type="text/css">
	.st0{fill:#FFFFFF;}
</style>
<g>
	<path class="st0" d="M54.6,11.4C47.4,4.1,37.7,0.1,27.5,0.1S7.5,4.1,0.3,11.4c-0.4,0.4-0.4,1,0,1.4s1,0.4,1.4,0
		c6.9-6.9,16-10.6,25.7-10.6s18.9,3.8,25.7,10.6c0.2,0.2,0.5,0.3,0.7,0.3s0.5-0.1,0.7-0.3C55,12.4,55,11.8,54.6,11.4z"/>
	<path class="st0" d="M6.2,17.2c-0.4,0.4-0.4,1,0,1.4C6.4,18.9,6.6,19,6.9,19s0.5-0.1,0.7-0.3c11-11,28.8-11,39.7,0
		c0.4,0.4,1,0.4,1.4,0s0.4-1,0-1.4C37,5.5,17.9,5.5,6.2,17.2z"/>
	<path class="st0" d="M27.5,16.8c-5.8,0-11.3,2.3-15.4,6.4c-0.4,0.4-0.4,1,0,1.4s1,0.4,1.4,0c3.7-3.7,8.7-5.8,14-5.8
		s10.3,2.1,14,5.8c0.2,0.2,0.5,0.3,0.7,0.3s0.5-0.1,0.7-0.3c0.4-0.4,0.4-1,0-1.4C38.8,19,33.3,16.8,27.5,16.8z"/>
	<path class="st0" d="M27.5,26.2c-3.6,0-6.6,2.9-6.6,6.6s2.9,6.6,6.6,6.6c3.6,0,6.6-2.9,6.6-6.6S31.1,26.2,27.5,26.2z M27.5,37.3
		c-2.5,0-4.6-2-4.6-4.6s2-4.6,4.6-4.6s4.6,2,4.6,4.6S30,37.3,27.5,37.3z"/>
</g>
</svg>
