<?xml version="1.0" encoding="utf-8"?>
<!-- Generator: Adobe Illustrator 22.0.1, SVG Export Plug-In . SVG Version: 6.00 Build 0)  -->
<svg version="1.1" id="Capa_1" xmlns="http://www.w3.org/2000/svg" xmlns:xlink="http://www.w3.org/1999/xlink" x="0px" y="0px"
	 viewBox="0 0 196.3 196.3" style="enable-background:new 0 0 196.3 196.3;" xml:space="preserve">
<style type="text/css">
	.st0{fill:#FFFFFF;}
</style>
<g>
	<g>
		<path class="st0" d="M194.3,111.1c-1.4-0.7-3.1-0.3-4.1,0.9c-15,18.2-37,28.6-60.5,28.6c-43.3,0-78.5-35.4-78.5-78.8
			c0-20.7,8-40.3,22.5-55.2c1.1-1.1,1.3-2.8,0.5-4.2c-0.8-1.3-2.4-1.9-3.9-1.5C28.2,13.8,0,52,0,96.1c0,54.8,44.4,99.3,99,99.3
			c47.4,0,88.3-33.9,97.2-80.6C196.5,113.3,195.7,111.8,194.3,111.1z M99,188.6c-50.8,0-92.2-41.5-92.2-92.5c0-36.7,21-69,53.4-84
			C49.9,26.5,44.4,43.8,44.4,61.8c0,47.2,38.3,85.6,85.3,85.6c21,0,41-7.7,56.5-21.5C173.7,162.9,138.8,188.6,99,188.6z"/>
	</g>
</g>
</svg>
