<?xml version="1.0" encoding="utf-8"?>
<!-- Generator: Adobe Illustrator 22.0.1, SVG Export Plug-In . SVG Version: 6.00 Build 0)  -->
<svg version="1.1" id="Capa_1" xmlns="http://www.w3.org/2000/svg" xmlns:xlink="http://www.w3.org/1999/xlink" x="0px" y="0px"
	 viewBox="0 0 480 480" style="enable-background:new 0 0 480 480;" xml:space="preserve">
<style type="text/css">
	.st0{fill:#FFFFFF;}
</style>
<g>
	<g>
		<g>
			<path class="st0" d="M416,0H64C50.7,0,40,10.7,40,24v432c0,13.3,10.7,24,24,24h352c13.3,0,24-10.7,24-24V24
				C440,10.7,429.3,0,416,0z M56,24c0-4.4,3.6-8,8-8h168v80H56V24z M424,456c0,4.4-3.6,8-8,8H64c-4.4,0-8-3.6-8-8V112h368V456z
				 M424,96H248V16h168c4.4,0,8,3.6,8,8V96z"/>
			<path class="st0" d="M264,80h96V32h-96V80z M280,48h64v16h-64V48z"/>
			<path class="st0" d="M112,32H96c-4.4,0-8,3.6-8,8s3.6,8,8,8h16c4.4,0,8-3.6,8-8S116.4,32,112,32z"/>
			<path class="st0" d="M112,64H96c-4.4,0-8,3.6-8,8s3.6,8,8,8h16c4.4,0,8-3.6,8-8S116.4,64,112,64z"/>
			<path class="st0" d="M160,32h-16c-4.4,0-8,3.6-8,8s3.6,8,8,8h16c4.4,0,8-3.6,8-8S164.4,32,160,32z"/>
			<path class="st0" d="M160,64h-16c-4.4,0-8,3.6-8,8s3.6,8,8,8h16c4.4,0,8-3.6,8-8S164.4,64,160,64z"/>
			<path class="st0" d="M208,32h-16c-4.4,0-8,3.6-8,8s3.6,8,8,8h16c4.4,0,8-3.6,8-8S212.4,32,208,32z"/>
			<path class="st0" d="M208,64h-16c-4.4,0-8,3.6-8,8s3.6,8,8,8h16c4.4,0,8-3.6,8-8S212.4,64,208,64z"/>
			<path class="st0" d="M240,440c83.9,0,152-68.1,152-152c-0.1-83.9-68.1-151.9-152-152c-83.9,0-152,68.1-152,152S156.1,440,240,440
				z M240,152c75.1,0,136,60.9,136,136c-0.1,75.1-60.9,135.9-136,136c-75.1,0-136-60.9-136-136S164.9,152,240,152z"/>
			<path class="st0" d="M240,408c66.3,0,120-53.7,120-120c-0.1-66.2-53.8-119.9-120-120c-66.3,0-120,53.7-120,120S173.7,408,240,408
				z M240,184c57.4,0,104,46.6,104,104c-0.1,57.4-46.6,103.9-104,104c-57.4,0-104-46.6-104-104S182.6,184,240,184z"/>
			<path class="st0" d="M190.1,342.4c3.8,2.2,8.7,1,10.9-2.9c0,0,0-0.1,0.1-0.1l64-110.8c2.2-3.8,0.9-8.7-2.9-10.9
				c-3.8-2.2-8.7-0.9-10.9,2.9l-64,110.8C185,335.2,186.3,340.1,190.1,342.4z"/>
			<path class="st0" d="M217.8,358.4c3.8,2.2,8.7,1,10.9-2.9c0,0,0-0.1,0.1-0.1l64-110.8c2.2-3.8,0.9-8.7-2.9-10.9
				c-3.8-2.2-8.7-0.9-10.9,2.9l-64,110.8C212.7,351.2,214,356.1,217.8,358.4z"/>
		</g>
	</g>
</g>
</svg>
