<?xml version="1.0" encoding="utf-8"?>
<!-- Generator: Adobe Illustrator 22.0.1, SVG Export Plug-In . SVG Version: 6.00 Build 0)  -->
<svg version="1.1" id="Capa_1" xmlns="http://www.w3.org/2000/svg" xmlns:xlink="http://www.w3.org/1999/xlink" x="0px" y="0px"
	 viewBox="0 0 198 198" style="enable-background:new 0 0 198 198;" xml:space="preserve">
<style type="text/css">
	.st0{fill:#FFFFFF;}
</style>
<g>
	<g>
		<path class="st0" d="M175.8,0H96.4C81.8,0,70,11.9,70,26.4v11.1c0,0.9,0.1,1.9,0.4,2.7c0.5,1.8,2.4,2.9,4.2,2.4
			c1.8-0.5,2.9-2.4,2.4-4.2c-0.1-0.3-0.1-0.6-0.1-0.9V26.4c0-10.8,8.8-19.6,19.6-19.6h79.4c1.9,0,3.4,1.5,3.4,3.4s-1.5,3.4-3.4,3.4
			H96.4c-7,0-12.8,5.7-12.8,12.8v11.1c0,0.3,0,0.6-0.1,0.9c-0.5,1.8,0.5,3.7,2.4,4.2c0.3,0.1,0.6,0.1,0.9,0.1c1.5,0,2.9-1,3.3-2.5
			c0.3-0.9,0.4-1.8,0.4-2.8V26.4c0-3.3,2.7-5.9,5.9-5.9h79.4c5.6,0,10.2-4.6,10.2-10.2C186,4.6,181.4,0,175.8,0z"/>
	</g>
</g>
<g>
	<g>
		<path class="st0" d="M139.9,61.4H23.9c-6.6,0-11.9,5.4-11.9,11.9c0,6.6,5.4,11.9,11.9,11.9h116.1c6.6,0,11.9-5.4,11.9-11.9
			S146.5,61.4,139.9,61.4z M139.9,78.5H23.9c-2.8,0-5.1-2.3-5.1-5.1c0-2.8,2.3-5.1,5.1-5.1h116.1c2.8,0,5.1,2.3,5.1,5.1
			C145.1,76.2,142.8,78.5,139.9,78.5z"/>
	</g>
</g>
<g>
	<g>
		<path class="st0" d="M107.5,37.5H56.3C41.3,37.5,29,49.8,29,64.9c0,1.9,1.5,3.4,3.4,3.4h99c1.9,0,3.4-1.5,3.4-3.4
			C134.8,49.8,122.6,37.5,107.5,37.5z M36.1,61.4c1.6-9.7,10.1-17.1,20.2-17.1h51.2c10.1,0,18.6,7.4,20.2,17.1
			C127.7,61.4,36.1,61.4,36.1,61.4z"/>
	</g>
</g>
<g>
	<g>
		<path class="st0" d="M42.7,92.2c-1.9,0-3.4,1.5-3.4,3.4v6.8c0,1.9,1.5,3.4,3.4,3.4s3.4-1.5,3.4-3.4v-6.8
			C46.1,93.7,44.6,92.2,42.7,92.2z"/>
	</g>
</g>
<g>
	<g>
		<g>
			<path class="st0" d="M42.7,159.9c-1.9,0-3.4,1.5-3.4,3.4v12.2c0,1.9,1.5,3.4,3.4,3.4s3.4-1.5,3.4-3.4v-12.2
				C46.1,161.5,44.6,159.9,42.7,159.9z"/>
			<path class="st0" d="M42.7,135.6c-1.9,0-3.4,1.5-3.4,3.4v12.2c0,1.9,1.5,3.4,3.4,3.4s3.4-1.5,3.4-3.4V139
				C46.1,137.1,44.6,135.6,42.7,135.6z"/>
			<path class="st0" d="M42.7,111.2c-1.9,0-3.4,1.5-3.4,3.4v12.2c0,1.9,1.5,3.4,3.4,3.4s3.4-1.5,3.4-3.4v-12.2
				C46.1,112.7,44.6,111.2,42.7,111.2z"/>
		</g>
	</g>
</g>
<g>
	<g>
		<path class="st0" d="M42.7,184.3c-1.9,0-3.4,1.5-3.4,3.4v6.8c0,1.9,1.5,3.4,3.4,3.4s3.4-1.5,3.4-3.4v-6.8
			C46.1,185.8,44.6,184.3,42.7,184.3z"/>
	</g>
</g>
<g>
	<g>
		<path class="st0" d="M66.6,92.2c-1.9,0-3.4,1.5-3.4,3.4v6.8c0,1.9,1.5,3.4,3.4,3.4s3.4-1.5,3.4-3.4v-6.8
			C70,93.7,68.4,92.2,66.6,92.2z"/>
	</g>
</g>
<g>
	<g>
		<g>
			<path class="st0" d="M66.6,159.9c-1.9,0-3.4,1.5-3.4,3.4v12.2c0,1.9,1.5,3.4,3.4,3.4s3.4-1.5,3.4-3.4v-12.2
				C70,161.5,68.4,159.9,66.6,159.9z"/>
			<path class="st0" d="M66.6,135.6c-1.9,0-3.4,1.5-3.4,3.4v12.2c0,1.9,1.5,3.4,3.4,3.4s3.4-1.5,3.4-3.4V139
				C70,137.1,68.4,135.6,66.6,135.6z"/>
			<path class="st0" d="M66.6,111.2c-1.9,0-3.4,1.5-3.4,3.4v12.2c0,1.9,1.5,3.4,3.4,3.4s3.4-1.5,3.4-3.4v-12.2
				C70,112.7,68.4,111.2,66.6,111.2z"/>
		</g>
	</g>
</g>
<g>
	<g>
		<path class="st0" d="M66.6,184.3c-1.9,0-3.4,1.5-3.4,3.4v6.8c0,1.9,1.5,3.4,3.4,3.4s3.4-1.5,3.4-3.4v-6.8
			C70,185.8,68.4,184.3,66.6,184.3z"/>
	</g>
</g>
<g>
	<g>
		<path class="st0" d="M90.5,92.2c-1.9,0-3.4,1.5-3.4,3.4v6.8c0,1.9,1.5,3.4,3.4,3.4s3.4-1.5,3.4-3.4v-6.8
			C93.9,93.7,92.3,92.2,90.5,92.2z"/>
	</g>
</g>
<g>
	<g>
		<g>
			<path class="st0" d="M90.5,135.6c-1.9,0-3.4,1.5-3.4,3.4v12.2c0,1.9,1.5,3.4,3.4,3.4s3.4-1.5,3.4-3.4V139
				C93.9,137.1,92.3,135.6,90.5,135.6z"/>
			<path class="st0" d="M90.5,159.9c-1.9,0-3.4,1.5-3.4,3.4v12.2c0,1.9,1.5,3.4,3.4,3.4s3.4-1.5,3.4-3.4v-12.2
				C93.9,161.5,92.3,159.9,90.5,159.9z"/>
			<path class="st0" d="M90.5,111.2c-1.9,0-3.4,1.5-3.4,3.4v12.2c0,1.9,1.5,3.4,3.4,3.4s3.4-1.5,3.4-3.4v-12.2
				C93.9,112.7,92.3,111.2,90.5,111.2z"/>
		</g>
	</g>
</g>
<g>
	<g>
		<path class="st0" d="M90.5,184.3c-1.9,0-3.4,1.5-3.4,3.4v6.8c0,1.9,1.5,3.4,3.4,3.4s3.4-1.5,3.4-3.4v-6.8
			C93.9,185.8,92.3,184.3,90.5,184.3z"/>
	</g>
</g>
<g>
	<g>
		<path class="st0" d="M114.3,92.2c-1.9,0-3.4,1.5-3.4,3.4v6.8c0,1.9,1.5,3.4,3.4,3.4s3.4-1.5,3.4-3.4v-6.8
			C117.8,93.7,116.2,92.2,114.3,92.2z"/>
	</g>
</g>
<g>
	<g>
		<g>
			<path class="st0" d="M114.3,159.9c-1.9,0-3.4,1.5-3.4,3.4v12.2c0,1.9,1.5,3.4,3.4,3.4s3.4-1.5,3.4-3.4v-12.2
				C117.8,161.5,116.2,159.9,114.3,159.9z"/>
			<path class="st0" d="M114.3,135.6c-1.9,0-3.4,1.5-3.4,3.4v12.2c0,1.9,1.5,3.4,3.4,3.4s3.4-1.5,3.4-3.4V139
				C117.8,137.1,116.2,135.6,114.3,135.6z"/>
			<path class="st0" d="M114.3,111.2c-1.9,0-3.4,1.5-3.4,3.4v12.2c0,1.9,1.5,3.4,3.4,3.4s3.4-1.5,3.4-3.4v-12.2
				C117.8,112.7,116.2,111.2,114.3,111.2z"/>
		</g>
	</g>
</g>
<g>
	<g>
		<path class="st0" d="M114.3,184.3c-1.9,0-3.4,1.5-3.4,3.4v6.8c0,1.9,1.5,3.4,3.4,3.4s3.4-1.5,3.4-3.4v-6.8
			C117.8,185.8,116.2,184.3,114.3,184.3z"/>
	</g>
</g>
</svg>
