<?xml version="1.0" encoding="utf-8"?>
<!-- Generator: Adobe Illustrator 22.0.1, SVG Export Plug-In . SVG Version: 6.00 Build 0)  -->
<svg version="1.1" id="Layer_1" xmlns="http://www.w3.org/2000/svg" xmlns:xlink="http://www.w3.org/1999/xlink" x="0px" y="0px"
	 viewBox="0 0 512 470.3" style="enable-background:new 0 0 512 470.3;" xml:space="preserve">
<style type="text/css">
	.st0{fill:#FFFFFF;}
</style>
<g>
	<g>
		<path class="st0" d="M511.2,324.5c0.8-2.1,1.1-4.4,0.3-6.8l-42.2-137.1V54.2c0-29.4-23.9-53.3-53.3-53.3H96
			c-29.4,0-53.3,23.9-53.3,53.3v126.5L0.5,317.8c-0.7,2.3-0.4,4.7,0.3,6.8c-0.5,2.3-0.8,4.6-0.8,7v85.3v42.7
			c0,5.9,4.8,10.7,10.7,10.7h42.7c5.9,0,10.7-4.8,10.7-10.7v-32h384v32c0,5.9,4.8,10.7,10.7,10.7h42.7c5.9,0,10.7-4.8,10.7-10.7
			v-42.7v-85.3C512,329.1,511.7,326.8,511.2,324.5z M64,54.2c0-17.6,14.4-32,32-32h320c17.6,0,32,14.4,32,32v117.3h-29l-9.9-39.8
			c-3.6-14.3-16.4-24.2-31.1-24.2h-68.7c-17.6,0-32,14.4-32,32v32h-42.7v-32c0-17.6-14.4-32-32-32H134c-14.7,0-27.5,10-31.1,24.2
			L93,171.6H64V54.2z M397.1,188.8c-2,2.6-5.1,4.1-8.4,4.1h-79.3c-5.9,0-10.7-4.8-10.7-10.7v-42.7c0-5.9,4.8-10.7,10.7-10.7H378
			c4.9,0,9.2,3.3,10.3,8.1l10.7,42.7C399.9,182.8,399.1,186.2,397.1,188.8z M213.4,139.6v42.6c0,0,0,0.1,0,0.1c0,0,0,0,0,0
			c0,5.9-4.8,10.6-10.6,10.6h-79.3c-3.3,0-6.4-1.5-8.4-4.1c-2-2.6-2.8-6-1.9-9.2l10.7-42.7c1.2-4.7,5.4-8.1,10.4-8.1h68.7
			C208.6,128.9,213.4,133.7,213.4,139.6z M61.2,192.9h32.1c1.1,3.2,2.6,6.3,4.8,9c6.1,7.8,15.3,12.3,25.3,12.3h79.3
			c13.9,0,25.6-9,30-21.3h46.6c4.4,12.4,16.1,21.3,30,21.3h79.3c9.9,0,19.1-4.5,25.2-12.3c2.2-2.8,3.6-5.8,4.8-9h32.1l32.9,107.1
			c-1.2-0.1-2.5-0.4-3.7-0.4H32c-1.3,0-2.5,0.2-3.7,0.4L61.2,192.9z M42.7,448.9H21.3v-21.3h21.3L42.7,448.9L42.7,448.9z
			 M490.7,448.9h-21.3v-21.3h21.3V448.9z M490.7,406.2H21.3v-74.7c0-5.9,4.8-10.7,10.7-10.7h448c5.9,0,10.7,4.8,10.7,10.7V406.2z"/>
	</g>
</g>
</svg>
